<!DOCTYPE svg PUBLIC "-//W3C//DTD SVG 1.1//EN" "http://www.w3.org/Graphics/SVG/1.1/DTD/svg11.dtd">
<svg xmlns="http://www.w3.org/2000/svg" xmlns:xlink="http://www.w3.org/1999/xlink" width="520px" height="367px" version="1.1" content="&lt;mxfile userAgent=&quot;Mozilla/5.0 (Macintosh; Intel Mac OS X 10_13_3) AppleWebKit/537.36 (KHTML, like Gecko) Chrome/64.0.3282.167 Safari/537.36&quot; version=&quot;8.5.0&quot; editor=&quot;www.draw.io&quot; neuronType=&quot;google&quot;&gt;&lt;diagram id=&quot;a65d6f96-b8c6-c4d9-e26e-5a43094979e5&quot; name=&quot;Page-1&quot;&gt;7ZpBk5owFMc/jcfuAElEjqt12x7a7oyHbo8RImSKxglx1X76BgloEnXRorLO7mEn/HmE5L3fSx5gBwymqy8cz5PvLCJpx3OiVQd87nhegBz5PxfWhYBcWAgxp1EhuVthRP8SJarr4gWNSKYZCsZSQee6GLLZjIRC0zDnbKmbTViq33WOY2IJoxCntvqLRiIp1J7nb/WvhMZJeWe3GxRnprg0VjPJEhyx5Y4Ehh0w4IyJojVdDUia+670S3Hd04Gz1cA4mYk6FyAceBMfOGSCJ8SFn1QHrzhdqLl+myV0TAXj647XTWWn/TGXrThv/SALzma2ruYm1qXD5E1lbORBf5lQQUZzHOZnlpIOqSVimsojVzZxNi8CNqErIsfYn9A0HbCU8U1H4GnzV93ilXBBVgfn7lYelSQSNiUin4WjLoBQBUFR6HbV8XIbU19JyU44Sw0riuKq562jZUP5up7fgeX34SqkAp/m9+fH9xoLz4gFvF0oYDOh6N9LKG6ZFqiZWAzuJRZe73ax6FqxsH04ix7z7VUehSnOMhrqrssEZ3/Ijq+czV91ptxMPdurg4GylJ7j6xcpOg8O8kvh90bwCmFFxYu6Y94uzqHS9JlwKp1B8o6dKkwksrZ8I0hypmzBQ3J0AReYx0Qc2VvtUO+EEu0JZalxkmJBX/VB7ouvusMzo3L4hxdYz0CkmJy6ardiMDsK9I6AyVrhAqujDW7VtM8i0G8bgTp96Ch7zWAGW44Z8HQ6eug8yiAyFj7H6OhylPXaRtmDq3Pm++6tVjnUdvyAjk1wLn5dAz/3avgFF8CvguoE/A7jJRkaqcEwLhIWsxlOh1t1F12kodsYh+VD/xEOwV3stigw18F6u63kA693zOa5QXZ4wMgs+lXmHByXWZg6R809Hx0xl41ivE3lUPme6COJ/jOJ4C2TCHlv1AC1S9aeTh9qZw654LQkMuybzyL7ZeC7y6KrZQq6aaaAN8qV+g93OmLddmZK+cx5OOGP2jefKd4FMqXhJ9NMxk6UI2BypKX2RNNyDPWzpbWVl2tU7v7ZmWBUcG69VGiCJvtjwF3T1BZU3ACeyYq1nMGrsWJ/rfhg5QqsABc+nLuymJuZ3VVzvMDA94LeGI0hxj0wxns+8P5ciPlC3NvH3a5jlERX/KJoOf0dlAf7iuzTSoITX1vvJ/Nm+W28b4bmM2Lt7Da4gxd6YQNNvn2thD61xJWH2x+dFObbX+6A4T8=&lt;/diagram&gt;&lt;/mxfile&gt;"><defs/><g transform="translate(0.5,0.5)"><ellipse cx="324" cy="183" rx="35" ry="35" fill="#ffffff" stroke="#000000" pointer-events="none"/><g transform="translate(299.5,169.5)"><switch><foreignObject style="overflow:visible;" pointer-events="all" width="48" height="26" requiredFeatures="http://www.w3.org/TR/SVG11/feature#Extensibility"><div xmlns="http://www.w3.org/1999/xhtml" style="display: inline-block; font-size: 12px; font-family: Helvetica; color: rgb(0, 0, 0); line-height: 1.2; vertical-align: top; width: 50px; white-space: nowrap; word-wrap: normal; text-align: center;"><div xmlns="http://www.w3.org/1999/xhtml" style="display:inline-block;text-align:inherit;text-decoration:inherit;">Inhibitory<br />Neuron<br /></div></div></foreignObject><text x="24" y="19" fill="#000000" text-anchor="middle" font-size="12px" font-family="Helvetica">[Not supported by viewer]</text></switch></g><ellipse cx="124" cy="63" rx="35" ry="35" fill="#ffffff" stroke="#000000" pointer-events="none"/><g transform="translate(97.5,42.5)"><switch><foreignObject style="overflow:visible;" pointer-events="all" width="52" height="40" requiredFeatures="http://www.w3.org/TR/SVG11/feature#Extensibility"><div xmlns="http://www.w3.org/1999/xhtml" style="display: inline-block; font-size: 12px; font-family: Helvetica; color: rgb(0, 0, 0); line-height: 1.2; vertical-align: top; width: 54px; white-space: nowrap; word-wrap: normal; text-align: center;"><div xmlns="http://www.w3.org/1999/xhtml" style="display:inline-block;text-align:inherit;text-decoration:inherit;">Excitatory<br />Neuron<br />PA<br /></div></div></foreignObject><text x="26" y="26" fill="#000000" text-anchor="middle" font-size="12px" font-family="Helvetica">[Not supported by viewer]</text></switch></g><ellipse cx="124" cy="183" rx="35" ry="35" fill="#ffffff" stroke="#000000" pointer-events="none"/><g transform="translate(97.5,162.5)"><switch><foreignObject style="overflow:visible;" pointer-events="all" width="52" height="40" requiredFeatures="http://www.w3.org/TR/SVG11/feature#Extensibility"><div xmlns="http://www.w3.org/1999/xhtml" style="display: inline-block; font-size: 12px; font-family: Helvetica; color: rgb(0, 0, 0); line-height: 1.2; vertical-align: top; width: 54px; white-space: nowrap; word-wrap: normal; text-align: center;"><div xmlns="http://www.w3.org/1999/xhtml" style="display:inline-block;text-align:inherit;text-decoration:inherit;">Excitatory<br />Neuron<br />PB<br /></div></div></foreignObject><text x="26" y="26" fill="#000000" text-anchor="middle" font-size="12px" font-family="Helvetica">[Not supported by viewer]</text></switch></g><ellipse cx="124" cy="303" rx="35" ry="35" fill="#ffffff" stroke="#000000" pointer-events="none"/><g transform="translate(97.5,282.5)"><switch><foreignObject style="overflow:visible;" pointer-events="all" width="52" height="40" requiredFeatures="http://www.w3.org/TR/SVG11/feature#Extensibility"><div xmlns="http://www.w3.org/1999/xhtml" style="display: inline-block; font-size: 12px; font-family: Helvetica; color: rgb(0, 0, 0); line-height: 1.2; vertical-align: top; width: 54px; white-space: nowrap; word-wrap: normal; text-align: center;"><div xmlns="http://www.w3.org/1999/xhtml" style="display:inline-block;text-align:inherit;text-decoration:inherit;">Excitatory<br />Neuron<br />PC<br /></div></div></foreignObject><text x="26" y="26" fill="#000000" text-anchor="middle" font-size="12px" font-family="Helvetica">[Not supported by viewer]</text></switch></g><path d="M 159 63 L 286.47 160.98" fill="none" stroke="#000000" stroke-width="2" stroke-miterlimit="10" pointer-events="none"/><path d="M 291.23 164.64 L 282.45 162.93 L 286.47 160.98 L 287.32 156.59 Z" fill="#000000" stroke="#000000" stroke-width="2" stroke-miterlimit="10" pointer-events="none"/><path d="M 159 183 L 280.76 183" fill="none" stroke="#000000" stroke-width="2" stroke-miterlimit="10" pointer-events="none"/><path d="M 286.76 183 L 278.76 187 L 280.76 183 L 278.76 179 Z" fill="#000000" stroke="#000000" stroke-width="2" stroke-miterlimit="10" pointer-events="none"/><path d="M 159 303 L 289.37 206.89" fill="none" stroke="#000000" stroke-width="2" stroke-miterlimit="10" pointer-events="none"/><path d="M 294.2 203.33 L 290.13 211.29 L 289.37 206.89 L 285.39 204.85 Z" fill="#000000" stroke="#000000" stroke-width="2" stroke-miterlimit="10" pointer-events="none"/><path d="M 359 183 L 379 183 Q 389 183 389 173 L 389 18 Q 389 8 379 8 L 134 8 Q 124 8 124 13.88 L 124 19.76" fill="none" stroke="#cc0000" stroke-width="2" stroke-miterlimit="10" pointer-events="none"/><path d="M 124 25.76 L 120 17.76 L 124 19.76 L 128 17.76 Z" fill="#cc0000" stroke="#cc0000" stroke-width="2" stroke-miterlimit="10" pointer-events="none"/><path d="M 359 183 L 379 183 Q 389 183 389 173 L 389 128 Q 389 118 379 118 L 134 118 Q 124 118 124 128 L 124 139.76" fill="none" stroke="#cc0000" stroke-width="2" stroke-miterlimit="10" pointer-events="none"/><path d="M 124 145.76 L 120 137.76 L 124 139.76 L 128 137.76 Z" fill="#cc0000" stroke="#cc0000" stroke-width="2" stroke-miterlimit="10" pointer-events="none"/><path d="M 359 183 L 379 183 Q 389 183 389 193 L 389 348 Q 389 358 379 358 L 139 358 Q 129 358 129 351.94 L 129 345.88" fill="none" stroke="#cc0000" stroke-width="2" stroke-miterlimit="10" pointer-events="none"/><path d="M 129 339.88 L 133 347.88 L 129 345.88 L 125 347.88 Z" fill="#cc0000" stroke="#cc0000" stroke-width="2" stroke-miterlimit="10" pointer-events="none"/><path d="M 12 63 L 80.76 63" fill="none" stroke="#000000" stroke-width="2" stroke-miterlimit="10" pointer-events="none"/><ellipse cx="9" cy="63" rx="3" ry="3" fill="#000000" stroke="#000000" stroke-width="2" pointer-events="none"/><path d="M 86.76 63 L 78.76 67 L 80.76 63 L 78.76 59 Z" fill="#000000" stroke="#000000" stroke-width="2" stroke-miterlimit="10" pointer-events="none"/><path d="M 12 182 L 80.76 182" fill="none" stroke="#000000" stroke-width="2" stroke-miterlimit="10" pointer-events="none"/><ellipse cx="9" cy="182" rx="3" ry="3" fill="#000000" stroke="#000000" stroke-width="2" pointer-events="none"/><path d="M 86.76 182 L 78.76 186 L 80.76 182 L 78.76 178 Z" fill="#000000" stroke="#000000" stroke-width="2" stroke-miterlimit="10" pointer-events="none"/><path d="M 12 302.5 L 80.76 302.5" fill="none" stroke="#000000" stroke-width="2" stroke-miterlimit="10" pointer-events="none"/><ellipse cx="9" cy="303" rx="3" ry="3" fill="#000000" stroke="#000000" stroke-width="2" pointer-events="none"/><path d="M 86.76 302.5 L 78.76 306.5 L 80.76 302.5 L 78.76 298.5 Z" fill="#000000" stroke="#000000" stroke-width="2" stroke-miterlimit="10" pointer-events="none"/><ellipse cx="484" cy="263" rx="35" ry="35" fill="#ffffff" stroke="#000000" pointer-events="none"/><g transform="translate(463.5,249.5)"><switch><foreignObject style="overflow:visible;" pointer-events="all" width="40" height="26" requiredFeatures="http://www.w3.org/TR/SVG11/feature#Extensibility"><div xmlns="http://www.w3.org/1999/xhtml" style="display: inline-block; font-size: 12px; font-family: Helvetica; color: rgb(0, 0, 0); line-height: 1.2; vertical-align: top; width: 40px; white-space: nowrap; word-wrap: normal; text-align: center;"><div xmlns="http://www.w3.org/1999/xhtml" style="display:inline-block;text-align:inherit;text-decoration:inherit;">Output<br />Neuron<br /></div></div></foreignObject><text x="20" y="19" fill="#000000" text-anchor="middle" font-size="12px" font-family="Helvetica">[Not supported by viewer]</text></switch></g><path d="M 149 208 L 240.24 258.18 Q 249 263 259 263 L 440.76 263" fill="none" stroke="#000000" stroke-width="2" stroke-miterlimit="10" pointer-events="none"/><path d="M 446.76 263 L 438.76 267 L 440.76 263 L 438.76 259 Z" fill="#000000" stroke="#000000" stroke-width="2" stroke-miterlimit="10" pointer-events="none"/></g></svg>